<svg xmlns="http://www.w3.org/2000/svg" width="1057.544" height="528.771" viewBox="0 0 1057.544 528.771">
  <g id="menu" transform="translate(0 -96.243)">
    <g id="Menu_1_" transform="translate(0 96.243)">
      <path id="Path_2750" data-name="Path 2750" d="M33.047,162.338H1024.5a33.047,33.047,0,1,0,0-66.095H33.047a33.047,33.047,0,1,0,0,66.095Z" transform="translate(0 -96.243)"/>
      <path id="Path_2751" data-name="Path 2751" d="M1024.5,180.455H33.047a33.047,33.047,0,0,0,0,66.095H1024.5a33.047,33.047,0,0,0,0-66.095Z" transform="translate(0 50.883)"/>
      <path id="Path_2752" data-name="Path 2752" d="M814.316,264.667H153.35a33.047,33.047,0,1,0,0,66.095H814.316a33.047,33.047,0,1,0,0-66.095Z" transform="translate(-119.82 198.009)"/>
    </g>
  </g>
</svg>
