<svg xmlns="http://www.w3.org/2000/svg" xmlns:xlink="http://www.w3.org/1999/xlink" width="114" height="115" viewBox="0 0 114 115">
  <defs>
    <path id="brand-logo-a" d="M6,0.2024 C7.33638226,0.16092425 8.63450509,0.650474866 9.60847087,1.56323358 C10.5824366,2.47599229 11.1523621,3.73709595 11.1927273,5.0688 C11.1927272,7.92654212 8.867864,10.2431998 6,10.2431998 C3.132136,10.2431998 0.807272848,7.92654212 0.807272727,5.0688 C0.847637899,3.73709595 1.41756336,2.47599229 2.39152913,1.56323358 C3.36549491,0.650474866 4.66361774,0.16092425 6,0.2024 Z"/>
    <linearGradient id="brand-logo-c" x1="14.721%" x2="83.426%" y1="115.301%" y2="-11.747%">
      <stop offset="0%" stop-color="#FBAA19"/>
      <stop offset="5%" stop-color="#FFC40C"/>
      <stop offset="11%" stop-color="#FDB73B"/>
      <stop offset="32%" stop-color="#FCED99"/>
      <stop offset="43%" stop-color="#F4D48B"/>
      <stop offset="52%" stop-color="#F2D176"/>
      <stop offset="66%" stop-color="#F4D595"/>
      <stop offset="75%" stop-color="#E6A224"/>
      <stop offset="87%" stop-color="#E6A224"/>
      <stop offset="96%" stop-color="#E29C26"/>
      <stop offset="100%" stop-color="#D69328"/>
    </linearGradient>
    <linearGradient id="brand-logo-d" x1="13.392%" x2="94.269%" y1="77.419%" y2="34.462%">
      <stop offset="0%" stop-color="#F3D677"/>
      <stop offset="5%" stop-color="#E8BF61"/>
      <stop offset="11%" stop-color="#EDC466"/>
      <stop offset="32%" stop-color="#FCED99"/>
      <stop offset="43%" stop-color="#FDF5A6"/>
      <stop offset="52%" stop-color="#F2D176"/>
      <stop offset="66%" stop-color="#E6A124"/>
      <stop offset="75%" stop-color="#E7A823"/>
      <stop offset="87%" stop-color="#E79824"/>
      <stop offset="96%" stop-color="#E48F25"/>
      <stop offset="100%" stop-color="#E69B24"/>
    </linearGradient>
  </defs>
  <g fill="none" fill-rule="evenodd">
    <g transform="translate(51)">
      <mask id="brand-logo-b" fill="#062164">
        <use xlink:href="#brand-logo-a"/>
      </mask>
      <use fill="#FFF" xlink:href="#brand-logo-a"/>
      <rect width="4.389" height="14.014" x="-.275" y="-2.2" fill="#00935D" fill-rule="nonzero" mask="url(#brand-logo-b)"/>
      <rect width="4.389" height="14.014" x="8.04" y="-2.2" fill="#00935D" fill-rule="nonzero" mask="url(#brand-logo-b)"/>
    </g>
    <path fill="url(#brand-logo-c)" d="M76.0255735,101.335311 C76.0128456,102.292594 76.1968354,103.241796 76.5654229,104.12039 L77.4051886,105.760492 C79.0612804,108.034081 81.5612886,109.492062 84.3032638,109.783383 C86.2627482,110.051651 88.254965,109.89353 90.1516319,109.319203 C91.2313306,109.040695 92.1610712,108.390844 92.5209708,108.390844 C92.8808703,108.390844 93.720636,109.938109 94.6803682,110 C95.2202176,108.824078 94.5304101,103.501483 94.9502929,102.573124 C95.8800335,102.573124 95.9700084,102.727851 96,102.139889 L96,101.706655 L95.190226,101.706655 L87.782293,101.706655 C86.4926529,101.706655 86.1627449,101.304366 86.1627449,102.387452 C86.1627449,103.470538 87.3924018,102.387452 87.3924018,102.944468 C87.5586122,104.675113 87.5284161,106.419862 87.3024269,108.143281 C86.996207,108.611903 86.4212349,108.806996 85.9052188,108.617365 C85.3892027,108.427735 85.0632083,107.901546 85.1130378,107.338703 L85.1130378,98.3645608 C85.1130378,96.5697324 84.4232303,93.2276382 86.6126194,93.2276382 C87.9624616,93.1533317 89.2991743,93.5334312 90.4215566,94.3107243 C91.2913496,94.9094498 92.0191832,95.702736 92.5509624,96.6316231 C93.3007532,98.0551076 92.4010042,99.1072484 93.9305774,98.7668499 C93.9919204,98.1288794 93.9919204,97.4862108 93.9305774,96.8482403 C94.1104164,95.2961858 94.1104164,93.7275519 93.9305774,92.1754974 C92.7908954,92.1754974 91.9211381,93.3204742 91.1113641,93.3204742 L88.7720169,92.3611693 C85.8915663,91.6142807 82.8432149,92.0351286 80.2543936,93.5370914 C79.2614813,94.0755423 78.415769,94.8630148 77.7950798,95.8270448 C77.5035968,96.3417423 77.2528525,96.879875 77.045289,97.4362013 C76.4077346,98.6264285 76.1064096,99.9772643 76.1755317,101.335311 L76.0255735,101.335311 Z M70.9869795,92.5468412 L73.2063602,92.5468412 C74.2941519,92.4528382 75.3876563,92.4528382 76.475448,92.5468412 L76.475448,93.4133101 C76.0063388,93.4589308 75.5542472,93.6179538 75.1558162,93.8774899 C73.956151,94.8058494 73.8661761,96.1055527 73.7462096,97.8384904 L73.7462096,103.625265 C73.7462096,104.522679 73.7462096,108.669351 73.7462096,109.164476 C73.2515534,109.368145 72.7132561,109.432231 72.1866447,109.350148 C68.5576573,109.350148 69.8173059,109.938109 67.0280841,106.441289 L60.040034,97.5290373 C59.3202349,96.5387871 59.0503102,95.9508261 59.0203186,96.6316231 C58.990327,97.31242 59.1702767,96.6316231 59.0203186,97.8075451 L59.0203186,101.799491 C59.0203186,103.65621 59.0203186,107.245867 60.7898248,107.988554 C61.2396993,108.174226 62.079465,108.236117 62.2894064,108.483679 C62.4993478,108.731242 62.2894064,109.164476 61.8095403,109.288258 L36.3166537,109.288258 C35.0699867,109.414278 33.8143668,109.414278 32.5676998,109.288258 C32.2078002,107.740992 33.3174905,108.54557 33.8573399,108.390844 C34.3971893,108.236117 33.8573399,107.895718 33.8573399,107.679101 L31.6079676,103.718101 C31.2183437,102.885877 30.7459364,102.097694 30.1983609,101.366257 C30.1983609,102.573124 30.1983609,103.594319 30.1983609,104.894023 C30.0633924,106.034765 30.0633924,107.188211 30.1983609,108.328953 C30.8235495,108.231914 31.4622888,108.295693 32.057842,108.514625 C32.057842,109.319203 32.057842,109.381094 31.2180764,109.381094 C28.9087207,109.381094 21.1108966,109.53582 20.0611895,109.381094 C20.0148084,109.167938 19.9946551,108.949599 20.0012062,108.731242 C20.1948649,108.45912 20.516433,108.316922 20.8409719,108.359898 L22.0706288,108.359898 L22.0706288,96.9101309 C22.0706288,93.3514195 22.7604363,93.5680367 21.0509133,93.5680367 C20.0911811,93.5680367 19.8212565,93.2895288 20.2111477,92.5158959 L32.2078002,92.5158959 L32.5077165,92.7944038 C32.5077165,93.1966929 32.5077165,93.0729116 32.5077165,93.4442554 C31.6679508,93.4442554 31.1880847,93.4442554 30.348319,93.4442554 C30.348319,94.0631618 30.348319,94.2488337 30.348319,94.86774 L30.3183274,99.4476469 C30.7682019,99.4476469 30.91816,98.8906312 31.3680345,98.7977953 L35.476888,95.7032636 C35.6868294,95.4247557 35.9867457,95.1771932 35.9567541,94.6820681 C35.9267625,94.186943 35.0869968,93.4752007 34.3671976,93.4133101 C33.9492438,93.4406812 33.5303669,93.377433 33.1375408,93.2276382 L33.1375408,92.5468412 C35.7589806,92.2879521 38.3951849,92.2258981 41.0253398,92.3611693 C42.7648544,92.3611693 42.8248377,92.2064427 42.8248377,93.2276382 C40.9435211,93.4617762 39.1598656,94.221465 37.6662771,95.4247557 C35.9567541,96.5697324 36.0767206,96.2912246 36.9464779,97.7765998 C37.2164026,98.2098342 37.3363691,98.581178 37.6062938,99.0144125 L41.3252561,105.63671 L41.3252561,105.946163 C41.3252561,106.131835 41.3252561,105.946163 41.3252561,106.193726 C41.615287,106.47993 41.8405757,106.828609 41.985072,107.214921 C41.985072,107.400593 42.1950134,107.586265 42.3149799,107.740992 L42.6148963,108.205172 L44.9542435,108.205172 C44.9542435,106.688851 44.9542435,105.512929 44.9542435,103.996609 L44.9542435,95.6104276 C44.9542435,95.1153025 45.1341933,93.9084352 44.9542435,93.6299273 C44.7742937,93.3514195 43.7545782,93.6299273 43.1847372,93.6299273 C42.6148963,93.6299273 42.9448042,92.8253491 43.6046201,92.7015678 L63.3691051,92.7015678 C64.6587453,92.7015678 65.3185612,92.4849506 65.8584105,93.2276382 L67.2080339,94.9915213 L70.2071971,98.8906312 C70.3077362,99.0424294 70.4179488,99.1871603 70.537105,99.3238656 C70.7669476,99.6184254 70.9773622,99.9285761 71.1669293,100.252225 C71.5868121,100.592624 71.9167201,101.397202 72.4565694,101.768546 C72.4565694,101.304366 72.4565694,101.180585 72.4565694,100.623569 C72.6515943,98.7483075 72.4677779,96.8516927 71.9167201,95.0534119 C71.5868121,94.3416696 70.9569878,94.0631618 70.7770381,93.8465445 L70.0872305,93.8465445 C68.7076155,93.8465445 68.9475486,93.8465445 68.9775402,92.8872397 L70.867013,92.8872397 L70.9869795,92.5468412 Z M56.3510634,108.0195 C56.8622512,107.719605 57.2470906,107.234289 57.4307621,106.657906 C57.650497,106.010573 57.7718978,105.332075 57.7906617,104.64646 L57.7906617,95.0534119 C57.6324013,94.4814993 57.2673835,93.9941025 56.7709462,93.691818 C56.141122,93.3823648 55.4513145,93.691818 54.6115488,93.4752007 C54.431599,93.6299273 54.3416241,93.6299273 53.9517329,93.4752007 L53.291917,93.4752007 L53.291917,108.267062 C54.3116733,108.421416 55.3508273,108.368858 56.3510634,108.112336 L56.3510634,108.0195 Z"/>
    <path fill="#062164" d="M41.9859149,87.5120134 L41.9859149,78.068612 C41.9859149,77.7996544 42.2867918,77.739886 42.5575809,77.6801177 C43.2796854,77.4709284 44.1221407,77.2617391 44.663719,78.2180329 C44.9102767,78.7292997 45.0141825,79.296916 44.9645959,79.8616629 L44.9645959,87.601666 C44.9669433,87.8891532 44.8594194,88.1668245 44.663719,88.3786547 C44.1522283,88.9464541 43.3398608,88.6476123 42.7681948,88.3786547 L42.2867918,88.0798129 C42.076178,87.930392 41.9859149,87.8706236 41.9859149,87.5717818 L41.9859149,87.5120134 Z M66.0560643,82.1328607 C65.1449657,82.2078438 64.2291835,82.2078438 63.3180848,82.1328607 C62.2349281,82.1328607 63.0472957,77.4410442 63.1375587,77.3215075 C63.870035,76.6270538 65.0227112,76.6270538 65.7551875,77.3215075 C66.0428815,78.8680087 66.1438868,80.4430663 66.0560643,82.013324 L66.0560643,82.1328607 Z M33.3206611,70.1791881 L33.3206611,88.109697 C33.3206611,89.2452959 33.8923271,89.0062225 31.214523,89.0062225 C30.9136462,89.4544852 30.9437338,89.4843694 31.214523,89.9924005 C33.1100473,90.410779 38.1046033,89.8130954 40.6620567,90.1717056 C41.203635,90.1717056 42.166441,90.8291576 42.2266164,89.9924005 C42.2266164,89.753327 42.2266164,89.424601 42.2266164,89.1556434 C44.0958662,90.405101 46.4167497,90.7933715 48.5949415,90.2210278 C50.7731334,89.6486841 52.5970988,88.1713093 53.599762,86.1672252 C53.599762,85.958036 53.599762,86.1672252 53.7502004,85.9281518 C53.9006389,85.6890783 53.7502004,84.971858 54.2616911,84.9120896 C54.2616911,85.0913947 54.2616911,85.3603523 54.4422172,85.5396574 C59.2261594,95.999121 74.3602659,88.7970332 72.3143032,85.5396574 C72.179289,85.4224528 72.0111971,85.3494101 71.8329002,85.3304682 C71.080708,86.9740981 65.8153628,90.5900841 63.5587863,88.3188863 C63.2988875,87.8634427 63.1640063,87.3481775 63.1676464,86.8246772 L63.1676464,83.2385754 C63.6490494,83.0293862 71.4116726,83.2385754 72.7054431,83.2385754 C75.3531596,77.2617391 59.4066856,70.2389564 54.652831,80.5191149 C54.5860691,80.6146546 54.5257613,80.7144877 54.4723049,80.8179567 C54.4723049,81.0869144 54.4723049,81.3259878 54.171428,81.5052929 C53.908531,80.4188104 53.4162636,79.40019 52.7272191,78.5168747 C51.9546974,77.5259518 50.9096336,76.7785953 49.7184504,76.3652137 C48.945756,76.0535503 48.114538,75.9108547 47.2813478,75.9468351 C45.624647,76.0792674 43.9832809,76.3593128 42.3770548,76.7835922 L42.3770548,71.5538604 C42.3770548,71.0458293 41.7151257,71.2550186 41.3540735,71.2550186 C40.207615,71.3013507 39.0593049,71.2413221 37.9240772,71.0757135 C36.8083482,70.9246392 35.716455,70.6334288 34.674607,70.2090722 C34.674607,70.2090722 33.2604857,69.7010412 33.2604857,70.2688406 L33.3206611,70.1791881 Z"/>
    <path fill="#062164" d="M73.743124,71.7594371 L73.2983814,71.7594371 C72.1865249,71.4252848 72.4366926,71.941702 72.4366926,74.4326555 C72.4366926,76.0426621 72.6312675,76.4375694 72.0753392,76.4679469 C71.519411,76.4983244 71.4916146,76.4679469 71.2414469,76.4679469 C70.8800935,77.0147416 70.8800935,77.7741786 71.5472074,77.7741786 L72.4366926,77.7741786 C72.4366926,78.9589004 72.4366926,87.3127082 72.6034711,87.9810128 C72.6652216,88.2814853 72.7488779,88.5760748 72.8536388,88.8619598 L73.270585,89.5910194 C73.6277483,90.0271551 74.0629133,90.3786654 74.5492199,90.6238538 L74.9383697,90.6238538 C75.093925,90.6607008 75.2437435,90.7220996 75.3831123,90.8061187 C76.7535351,91.0646271 78.1543549,91.0646271 79.5247777,90.8061187 L80.5532449,90.4415889 C81.3611357,90.1528226 82.0564007,89.5749278 82.5267902,88.8012048 C82.9410218,88.245383 83.2867902,87.6326123 83.5552574,86.9785559 L84,85.9760989 C84,85.3685493 82.9993292,84.8825096 82.582383,85.9760989 C82.3600117,86.5532711 81.8596763,88.1025227 81.1091732,88.1025227 C80.9814031,88.1372545 80.8477934,88.1372545 80.7200234,88.1025227 C80.7200234,87.7683704 80.7200234,87.7987479 80.7200234,87.4342181 L80.7200234,78.0779534 C80.7200234,77.5919137 82.0820476,78.0779534 83.0827184,77.7741786 C83.3538098,77.4233215 83.3538098,76.9099364 83.0827184,76.5590793 L80.8590054,76.5590793 C80.774362,75.0618843 80.774362,73.5604069 80.8590054,72.0632119 C80.8590054,72.0632119 81.0257839,71 80.6366341,71 C78.3871019,71.6323025 76.0628723,71.8883558 73.743124,71.7594371 Z"/>
    <path fill="url(#brand-logo-d)" d="M73.1537684,69.7922593 C88.4503743,72.5780219 97.8382913,52.8080941 101.437493,47.0268879 C102.57724,45.2296218 90.070015,66.0479548 76.8729432,65.3889572 C63.1959779,64.6700507 61.0064637,17.7913584 60.7065302,9.13452639 C62.6394779,7.29383656 62.8226507,4.27540534 61.1264371,2.21505167 C59.2309751,-0.187537296 55.79513,-0.711413323 53.2681807,1.01687423 C52.0962818,1.82976187 51.3190406,3.09585244 51.1252393,4.50762823 C50.931438,5.91940401 51.338809,7.34769041 52.2484069,8.44557436 C52.4590072,8.74029098 52.7116236,9.00267125 52.9982406,9.2243897 C52.6983071,18.2107205 50.4488063,64.6700507 36.8318276,65.3889572 C23.214849,66.1078637 11.127531,45.2296218 12.2372848,47.0268879 C15.8664795,52.8080941 25.2543965,72.5780219 40.5210091,69.7922593 C51.2586266,67.8152665 54.4979078,23.2730202 55.2177481,10.4225671 C56.2770782,10.7192333 57.3976993,10.7192333 58.4570294,10.4225671 C59.206863,23.2730202 62.4461442,67.8152665 73.1537684,69.7922593 Z M110.73543,36.5128809 C109.83532,36.5128809 109.003584,36.9924606 108.55353,37.7709672 C108.103475,38.5494737 108.103475,39.5086333 108.55353,40.2871399 C109.003584,41.0656464 109.83532,41.5452262 110.73543,41.5452262 C112.126878,41.5452262 113.254871,40.4186973 113.254871,39.0290535 C113.254871,37.6394098 112.126878,36.5128809 110.73543,36.5128809 Z M110.195549,42.1443149 C100.571453,56.7466574 94.7563256,73.52069 93.2793029,90.9400911 L87.2806339,90.9400911 C88.8102945,72.6079763 103.447047,49.7227872 108.965822,41.7549072 C107.950093,41.2051889 107.308596,40.1526677 107.286195,38.9990991 C107.212554,37.628201 107.982679,36.3508264 109.230319,35.7744582 C110.477959,35.19809 111.951325,35.4390469 112.949727,36.3827365 C113.948128,37.3264261 114.270074,38.7823998 113.762456,40.0582379 C113.254838,41.334076 112.020101,42.172298 110.64545,42.1742693 L110.195549,42.1443149 Z M3.08931453,36.6027442 C4.48076336,36.6027442 5.60875551,37.7292731 5.60875551,39.1189168 C5.60875551,40.5085606 4.48076336,41.6350895 3.08931453,41.6350895 C1.6978657,41.6350895 0.569873555,40.5085606 0.569873555,39.1189168 C0.569873555,37.7292731 1.6978657,36.6027442 3.08931453,36.6027442 Z M82.9315989,50.6513747 C81.7757261,54.4730982 81.2986303,58.467394 81.5219116,62.4534225 C80.2321978,63.6216455 74.4134889,63.6515999 73.4537018,61.2252906 C76.7150716,58.0994279 79.4496647,54.4681486 81.551905,50.4716481 C80.8018193,50.0100571 80.4876698,49.0801172 80.8044533,48.2590542 C81.1212368,47.4379912 81.9789748,46.9590179 82.8452581,47.1194393 C83.7115414,47.2798608 84.340313,48.0341111 84.3412861,48.9140174 C84.3224934,49.7462127 83.7428884,50.4605421 82.9315989,50.6513747 Z M81.8818318,50.3817848 C81.2723705,50.1480767 80.8679471,49.5659874 80.8620581,48.9140174 C80.842178,48.0512237 81.5040271,47.3248018 82.3659781,47.2633688 C83.2279291,47.2019357 83.9863613,47.8271312 84.0893638,48.6840006 C84.1923663,49.5408699 83.6036567,50.3275827 82.7516388,50.4716481 C82.4626695,50.5050815 82.1708011,50.5050815 81.8818318,50.4716481 L81.8818318,50.3817848 Z M29.9633516,50.3817848 C29.2080312,50.2643551 28.6492475,49.6175141 28.6436445,48.8541085 C28.6599948,47.9724857 29.3803657,47.2663722 30.2632851,47.2665234 C31.1462045,47.2663722 31.8665754,47.9724857 31.8829257,48.8541085 C31.8771362,49.6339087 31.3051165,50.2940517 30.5332252,50.4117392 C30.3356895,50.4556768 30.130894,50.4556768 29.9333583,50.4117392 L29.9633516,50.3817848 Z M29.9633516,50.6513747 C29.0632146,50.4934701 28.4245241,49.6868266 28.4781912,48.7756696 C28.5318583,47.8645127 29.2608389,47.138216 30.173305,47.0867968 C30.6585625,47.078787 31.1271244,47.2636566 31.4758791,47.6007233 C31.8246337,47.9377899 32.0250026,48.3994329 32.0328924,48.884063 C32.03077,49.4563083 31.7513446,49.9921091 31.2830588,50.3218759 C33.3760965,54.367604 36.122273,58.04129 39.4112553,61.1953362 C38.4514683,63.6216455 32.6627527,63.5916911 31.3730388,62.423468 C31.5801005,58.4478195 31.1033014,54.4661393 29.9633516,50.6513747 Z M59.7467432,9.13452639 C57.5193888,10.635101 54.5099943,10.1646763 52.8482738,8.05616669 C52.0451428,7.09220449 51.6851196,5.83528126 51.8563022,4.59296785 C52.0274848,3.35065443 52.714079,2.23757429 53.7480742,1.52609965 C55.9773632,0.0151073633 58.9954881,0.471805789 60.6765369,2.57450491 C61.47791,3.54735183 61.8335435,4.81149612 61.6567538,6.05880977 C61.4799641,7.30612341 60.7869911,8.42202738 59.7467432,9.13452639 Z M3.68918143,42.084406 L3.17929457,42.084406 C1.42341866,42.084406 2.08120639e-16,40.6628339 0,38.9092358 C-2.49744766e-16,37.1556377 1.42341866,35.7340656 3.17929457,35.7340656 C4.04645171,35.7099015 4.88767245,36.0309275 5.51772807,36.6264566 C6.14778369,37.2219857 6.51501069,38.0431855 6.5385492,38.9092358 C6.55240486,40.0654594 5.89867185,41.1263974 4.85892189,41.6350895 C10.3177107,49.8126505 24.954463,72.6978396 26.4841236,91 L20.4854546,91 C19.0089982,73.5896245 13.2160694,56.8201597 3.62919474,42.2042237 L3.68918143,42.084406 Z"/>
    <path fill="#062164" d="M95.7826087 94.9747899L95.7826087 94.8235294 96.2753623 94.8235294 96.2753623 92.1260504 96.0724638 92.1260504C95.8647789 92.1244017 95.6655183 92.1973729 95.5217391 92.3277311 95.3374696 92.5070765 95.2079069 92.723782 95.1449275 92.9579832L95 92.9579832 95 92 98.3913043 92 98.3913043 92.907563 98.2463768 92.907563C98.1968006 92.6743536 98.0767492 92.4568233 97.8985507 92.2773109 97.7547715 92.1469527 97.555511 92.0739816 97.3478261 92.0756303L97.1449275 92.0756303 97.1449275 94.7731092 97.5797101 94.7731092 97.5797101 94.9243697 95.7826087 94.9747899zM98.6811594 94.9747899L98.6811594 94.8235294 98.942029 94.8235294C98.942029 94.8235294 98.942029 94.8235294 99.115942 94.8235294 99.1320578 94.7740834 99.1320578 94.7217149 99.115942 94.6722689L99.115942 92.1512605 98.6231884 92.1512605 98.6231884 92.0252101 100.188406 92.0252101 100.826087 93.7394958 101.492754 92.0252101 103 92.0252101 103 92.1512605 102.536232 92.1512605 102.536232 94.8487395 102.971014 94.8487395 102.971014 95 101.144928 95 101.144928 94.8487395 101.637681 94.8487395 101.637681 92.1764706 100.565217 94.9747899 100.391304 94.9747899 99.3188406 92.1512605 99.3188406 94.6722689C99.298676 94.7297852 99.298676 94.7912232 99.3188406 94.8487395 99.3828845 94.8758404 99.4576952 94.8758404 99.5217391 94.8487395L99.7826087 94.8487395 99.7826087 95 98.6811594 94.9747899zM20.074579 112.802738L20.940212 112.802738C21.0738023 112.85275 21.2245136 112.85275 21.3581038 112.802738 21.4079433 112.701459 21.4079433 112.586341 21.3581038 112.485062 21.4095134 112.374876 21.4095134 112.251098 21.3581038 112.140912 21.2214267 112.107026 21.0768892 112.107026 20.940212 112.140912L20.074579 112.140912 20.074579 113.014522 20.074579 112.802738zM19 114.841162L19 111.214356 20.940212 111.214356C21.3374641 111.176399 21.7352895 111.281293 22.0446404 111.50556 22.3195758 111.716477 22.4638694 112.031485 22.4326828 112.352697 22.4588973 112.675838 22.3286195 112.993577 22.0744898 113.226307 21.7763563 113.497487 21.3672683 113.650251 20.940212 113.649875L20.074579 113.649875 20.074579 114.947054 19 114.841162zM23.0296711 114.841162L23.0296711 111.214356 24.1042501 111.214356 24.1042501 114.046971 26.104161 114.046971 26.104161 114.841162 23.0296711 114.841162zM27.7458788 113.411618L28.6712107 113.411618 28.1936201 112.167385 27.7458788 113.411618zM27.7458788 111.214356L28.910006 111.214356 30.3726274 114.841162 29.1488014 114.841162 28.8801566 114.179336 27.4772341 114.179336 27.2682882 114.841162 26.1340104 114.841162 27.6563306 111.214356 27.7458788 111.214356zM31.417357 114.841162L32.4620865 114.841162 32.4620865 113.464564 33.8948585 111.214356 32.7008818 111.214356 31.924797 112.670373 31.1785616 111.214356 29.8950368 111.214356 31.3278087 113.464564 31.3278087 114.841162 31.417357 114.841162zM37.3872401 114.841162L37.3872401 114.364647C37.2630128 114.552572 37.0749466 114.700833 36.8499506 114.788216 36.6107631 114.898996 36.3436012 114.953674 36.0738658 114.947054 35.8180819 114.943817 35.5651423 114.898952 35.3276304 114.814689 35.1043789 114.725148 34.9019199 114.599457 34.7306421 114.444066 34.5469766 114.267839 34.4048945 114.060821 34.3127503 113.835187 34.2173754 113.587927 34.1669958 113.328778 34.1635032 113.067469 34.1465417 112.540411 34.3605166 112.028028 34.7604915 111.637925 35.1644179 111.266921 35.7325208 111.073135 36.3126612 111.108464 36.7398022 111.090885 37.1609445 111.202937 37.5066378 111.42614 37.8400033 111.642135 38.0649577 111.96515 38.1334755 112.326224L37.1185954 112.326224C37.0523646 112.176866 36.9382076 112.04801 36.7902518 111.955601 36.3683328 111.75518 35.8458772 111.843439 35.5365764 112.167385 35.3426551 112.425077 35.2483751 112.731668 35.2679316 113.040995 35.2479702 113.333853 35.3428889 113.623813 35.5365764 113.86166 35.7084189 114.073002 35.989399 114.192616 36.2828117 114.179336 36.5050187 114.183535 36.7234843 114.128176 36.9096495 114.020498 37.0600925 113.902098 37.1645538 113.744601 37.2081436 113.570456L36.2828117 113.570456 36.2828117 112.855684 38.1633249 112.855684 38.1633249 114.841162 37.3872401 114.841162zM39.8945911 112.776265L40.7005253 112.776265C40.8467766 112.813771 41.0020152 112.813771 41.1482665 112.776265 41.269829 112.695851 41.3372327 112.566329 41.327363 112.432116 41.3345906 112.319195 41.2787967 112.210332 41.1781159 112.140912 41.0327022 112.098486 40.8757885 112.098486 40.7303747 112.140912L39.8945911 112.140912 39.8945911 112.988049 39.8945911 112.776265zM38.8200121 114.841162L38.8200121 111.214356 40.8199229 111.214356C41.2264181 111.184992 41.6331697 111.26824 41.9840502 111.452613 42.2576649 111.629445 42.4052933 111.921519 42.3720926 112.220331 42.3727128 112.405074 42.3214186 112.587043 42.2228455 112.749792 42.080453 112.899614 41.9085046 113.025201 41.7154054 113.120415 41.87041 113.16051 42.00657 113.244112 42.1034478 113.358672 42.149715 113.541712 42.149715 113.731566 42.1034478 113.914606 42.1034478 113.914606 42.1034478 114.073444 42.1034478 114.205809 42.1034478 114.338174 42.1034478 114.682324 42.2825443 114.708797L42.2825443 114.841162 41.1482665 114.841162C41.1103798 114.666274 41.1103798 114.486589 41.1482665 114.311701 41.1703302 114.17119 41.1703302 114.028644 41.1482665 113.888133 41.1116195 113.789749 41.0378176 113.705594 40.9393206 113.649875 40.8026434 113.615989 40.658106 113.615989 40.5214288 113.649875L39.8050428 113.649875 39.8050428 115 38.8200121 114.841162zM44.0138104 113.040995C43.9897834 113.338713 44.0734344 113.635469 44.2526058 113.888133 44.4447519 114.073014 44.7153345 114.178186 44.9988412 114.178186 45.2823478 114.178186 45.5529305 114.073014 45.7450766 113.888133 45.9347394 113.63861 46.0289218 113.341618 46.0137213 113.040995 46.0332778 112.731668 45.9389979 112.425077 45.7450766 112.167385 45.5529305 111.982504 45.2823478 111.877332 44.9988412 111.877332 44.7153345 111.877332 44.4447519 111.982504 44.2526058 112.167385 44.0691592 112.42824 43.9854192 112.734595 44.0138104 113.040995zM42.9093821 113.040995C42.8792809 112.524863 43.083538 112.019542 43.476521 111.637925 43.8163427 111.281774 44.2969451 111.054446 44.8197447 111.002572 45.3897082 110.975133 45.9450718 111.168288 46.3420649 111.532033 46.7442025 111.908709 46.9499138 112.417628 46.9092038 112.935103 46.9451103 113.444063 46.739488 113.943164 46.3420649 114.311701 45.9450718 114.675446 45.3897082 114.8686 44.8197447 114.841162 44.2516659 114.858542 43.7007447 114.666932 43.2974245 114.311701 42.9090673 113.93821 42.7049104 113.442666 42.7302856 112.935103L42.9093821 113.040995zM47.715138 111.214356L48.7598675 111.214356 48.7598675 113.464564C48.7355988 113.663494 48.7998598 113.862966 48.938964 114.020498 49.0817909 114.142737 49.2792943 114.201125 49.4762535 114.179336 49.6723473 114.194089 49.8666488 114.136648 50.013543 114.020498 50.1262418 113.853089 50.1783334 113.659052 50.1627901 113.464564L50.1627901 111.214356 51.2075196 111.214356 51.2075196 113.358672C51.2467159 113.604531 51.2467159 113.854058 51.2075196 114.099917 51.1446561 114.272952 51.0313907 114.428199 50.8791761 114.549958 50.715652 114.681717 50.5222969 114.780997 50.3120372 114.841162 49.8273246 114.982584 49.304279 114.982584 48.8195664 114.841162 48.6093067 114.780997 48.4159515 114.681717 48.2524275 114.549958 48.1002129 114.428199 47.9869474 114.272952 47.9240839 114.099917 47.8693908 113.855216 47.8693908 113.603373 47.9240839 113.358672L47.9240839 111.214356 47.715138 111.214356zM52.0134539 114.841162L52.0134539 111.214356 53.1477317 111.214356 53.9536659 112.405643 54.3118589 112.988049C54.4329127 113.167784 54.5425319 113.353385 54.6402025 113.543983 54.6402025 113.279253 54.6402025 113.014522 54.6402025 112.776265 54.6402025 112.538008 54.6402025 112.326224 54.6402025 112.140912L54.6402025 111.214356 55.684932 111.214356 55.684932 114.841162 54.3715577 114.841162 53.5656235 113.649875 53.2372799 113.146888C53.1348056 112.944934 53.0150584 112.75023 52.8790869 112.564481 52.8926748 112.784925 52.8926748 113.005863 52.8790869 113.226307L52.8790869 114.867635 52.0134539 114.841162zM57.5057464 114.073444L58.1027347 114.073444C58.3696911 114.09305 58.6325253 114.005636 58.8191207 113.835187 58.9898531 113.598901 59.0733207 113.321303 59.057916 113.040995 59.0776135 112.751975 58.9940534 112.464806 58.8191207 112.220331 58.6325253 112.049882 58.3696911 111.962468 58.1027347 111.982074L57.5057464 111.982074 57.5057464 114.073444zM56.4610168 114.841162L56.4610168 111.214356 58.2221324 111.214356C58.7488598 111.185309 59.2662024 111.347809 59.6549043 111.664398 60.0054221 112.052831 60.1761702 112.544992 60.132495 113.040995 60.1870371 113.53451 60.0025629 114.025333 59.6250549 114.39112 59.2053808 114.714855 58.6574882 114.876827 58.1027347 114.841162L56.4610168 114.841162zM62.4309 114.841162L62.4309 111.214356 65.4158416 111.214356 65.4158416 111.955601 63.4756295 111.955601 63.4756295 112.723319 65.1471968 112.723319 65.1471968 113.464564 63.4756295 113.464564 63.4756295 114.841162 62.4309 114.841162zM66.8784629 113.040995C66.8632625 113.341618 66.9574448 113.63861 67.1471077 113.888133 67.3316352 114.082392 67.6071886 114.189921 67.8933431 114.179336 68.177834 114.182403 68.4499249 114.076225 68.6395785 113.888133 68.8187498 113.635469 68.9024008 113.338713 68.8783738 113.040995 68.906765 112.734595 68.823025 112.42824 68.6395785 112.167385 68.4499249 111.979293 68.177834 111.873115 67.8933431 111.876182 67.6071886 111.865597 67.3316352 111.973126 67.1471077 112.167385 66.9531864 112.425077 66.8589065 112.731668 66.8784629 113.040995zM65.803884 113.040995C65.7593952 112.523062 65.9656394 112.012825 66.3710229 111.637925 66.7680159 111.27418 67.3233796 111.081025 67.8933431 111.108464 68.4614218 111.091084 69.012343 111.282694 69.4156633 111.637925 69.8178009 112.014601 70.0235122 112.52352 69.9828022 113.040995 70.02624 113.548021 69.8222278 114.047196 69.4225652 114.411779 69.0229027 114.776361 68.4660312 114.971283 67.8933431 114.947054 67.3233796 114.974492 66.7680159 114.781338 66.3710229 114.417593 65.9703828 114.050838 65.7642229 113.550433 65.803884 113.040995zM71.7737671 112.776265L72.5498519 112.776265C72.7056601 112.817464 72.8716344 112.817464 73.0274426 112.776265 73.14257 112.693193 73.1993786 112.562198 73.1766897 112.432116 73.1766897 112.432116 73.1766897 112.193858 73.0274426 112.140912 72.8832848 112.092027 72.7238592 112.092027 72.5797014 112.140912L71.6842189 112.140912 71.6842189 112.988049 71.7737671 112.776265zM70.6991882 114.841162L70.6991882 111.214356 72.699099 111.214356C73.1055942 111.184992 73.5123458 111.26824 73.8632262 111.452613 74.136841 111.629445 74.2844693 111.921519 74.2512686 112.220331 74.2556655 112.40911 74.1930111 112.594334 74.0721721 112.749792 73.9486383 112.905391 73.7848712 113.032478 73.5945815 113.120415 73.7495861 113.16051 73.885746 113.244112 73.9826239 113.358672 74.0288911 113.541712 74.0288911 113.731566 73.9826239 113.914606 73.9703 114.011366 73.9703 114.109049 73.9826239 114.205809 73.9826239 114.497012 73.9826239 114.682324 73.9826239 114.708797L73.9826239 114.841162 72.8781955 114.841162C72.8403088 114.666274 72.8403088 114.486589 72.8781955 114.311701 72.8781955 114.099917 72.8781955 113.941079 72.8781955 113.888133 72.8778661 113.768886 72.8241877 113.65463 72.7289484 113.570456 72.5922713 113.53657 72.4477338 113.53657 72.3110566 113.570456L71.6842189 113.570456 71.6842189 114.920581 70.6991882 114.841162zM76.6690713 114.841162L76.6690713 111.214356 77.654102 111.214356 77.654102 112.590954 79.1465728 111.214356 80.4300977 111.214356 78.728681 112.723319 80.4599471 114.841162 79.1465728 114.841162 77.9525962 113.385145 77.654102 113.649875 77.654102 114.788216 76.6690713 114.841162zM80.9375378 114.841162L80.9375378 111.214356 81.9822673 111.214356 81.9822673 114.841162 80.9375378 114.841162zM82.8479004 114.841162L82.8479004 111.214356 83.9821782 111.214356 84.758263 112.405643C84.9050195 112.590231 85.0347859 112.784995 85.1463054 112.988049L85.474649 113.543983C85.474649 113.279253 85.474649 113.014522 85.474649 112.776265 85.4609269 112.564656 85.4609269 112.352522 85.474649 112.140912L85.474649 111.214356 86.5193785 111.214356 86.5193785 114.841162 85.3552513 114.841162 84.3702206 113.649875 84.041877 113.146888 83.6239852 112.538008C83.6239852 112.776265 83.6239852 112.988049 83.6239852 113.199834L83.6239852 114.841162 82.8479004 114.841162zM90.3998026 114.841162L90.3998026 114.364647C90.2755753 114.552572 90.0875091 114.700833 89.8625131 114.788216 89.622441 114.896858 89.3559024 114.951409 89.0864283 114.947054 88.8306443 114.943817 88.5777047 114.898952 88.3401929 114.814689 88.1169413 114.725148 87.9144824 114.599457 87.7432046 114.444066 87.5595391 114.267839 87.4174569 114.060821 87.3253128 113.835187 87.2299378 113.587927 87.1795582 113.328778 87.1760657 113.067469 87.1591041 112.540411 87.3730791 112.028028 87.773054 111.637925 88.1769803 111.266921 88.7450832 111.073135 89.3252236 111.108464 89.7523647 111.090885 90.1735069 111.202937 90.5192002 111.42614 90.8525658 111.642135 91.0775201 111.96515 91.146038 112.326224L89.8923625 112.326224C89.8479276 112.174212 89.7415914 112.042181 89.5938684 111.955601 89.1719494 111.75518 88.6494938 111.843439 88.3401929 112.167385 88.1462716 112.425077 88.0519917 112.731668 88.0715482 113.040995 88.0515867 113.333853 88.1465055 113.623813 88.3401929 113.86166 88.5120355 114.073002 88.7930155 114.192616 89.0864283 114.179336 89.3086352 114.183535 89.5271008 114.128176 89.713266 114.020498 89.863709 113.902098 89.9681704 113.744601 90.0117602 113.570456L89.0864283 113.570456 89.0864283 112.855684 90.9669415 112.855684 90.9669415 114.841162 90.3998026 114.841162zM91.653478 113.623402L92.5788099 113.623402C92.5736752 113.800651 92.6489476 113.972314 92.7877558 114.099917 92.9588856 114.214556 93.1707222 114.270918 93.3847442 114.258755 93.5413727 114.294622 93.7057063 114.294622 93.8623348 114.258755 93.8623348 114.258755 94.0712807 114.099917 94.0712807 113.994025 94.0945156 113.943084 94.0945156 113.886128 94.0712807 113.835187 93.893538 113.749018 93.7024345 113.686575 93.5041418 113.649875L92.5788099 113.25278C92.3176222 113.172087 92.0891552 113.024724 91.9221228 112.829211 91.7568812 112.671765 91.6707142 112.461609 91.6833275 112.246804 91.6714706 111.917214 91.8378459 111.602428 92.1310687 111.399667 92.4851448 111.194671 92.9025681 111.092864 93.3250453 111.108464 93.7530893 111.084138 94.1767624 111.196863 94.519022 111.42614 94.8170192 111.637214 94.9833964 111.96184 94.9667632 112.299751L93.9817325 112.299751C93.9685391 112.156945 93.8936855 112.024172 93.7727866 111.929128 93.6233542 111.839133 93.4459219 111.792849 93.2653465 111.796763 93.1281396 111.766495 92.9846616 111.766495 92.8474547 111.796763 92.7562826 111.849358 92.7003926 111.93858 92.6982076 112.03502 92.6982076 112.193858 92.9370029 112.352697 93.444443 112.485062L93.6832383 112.485062C94.0367761 112.547355 94.3720752 112.673513 94.668269 112.855684 94.8065065 112.927451 94.9120979 113.039828 94.9667632 113.173361 95.0110789 113.3208 95.0110789 113.475963 94.9667632 113.623402 94.9667632 113.956705 94.7898228 114.270557 94.4891725 114.470539 94.0816677 114.678702 93.6157781 114.779704 93.1459488 114.761743 92.7081672 114.790142 92.2735534 114.677327 91.9221228 114.444066 91.6998582 114.223225 91.5637818 113.944722 91.5340804 113.649875L91.653478 113.623402z"/>
  </g>
</svg>