<svg xmlns="http://www.w3.org/2000/svg" width="3333.12" height="1248.065" viewBox="0 0 3333.12 1248.065">
  <g id="bet9ja" transform="translate(-40.59 -370.035)">
    <path id="Path_2749" data-name="Path 2749" d="M967.892,952.048c-8.758,2.244-13.1,8.07-14.693,16.828-7.491,41.728-16.322,83.238-18.1,125.725a187.646,187.646,0,0,0,5.248,58.918c9.156,32.571,29.857,55.009,62.862,61.523,60.329,11.943,115.809,1.339,156.776-48.314,30.8-37.385,43.428-80.415,23.922-128.258-2.063-5.067-3.185-10.278,3.619-11.653,22.04-4.451,44.188-10.857,66.554-1.556,25.659,10.857,38.289,31.051,38.579,57.9.471,49.653-21.714,89.281-59.605,119.645-45.853,36.805-98.944,58.266-156.776,68.436-41.112,7.238-82.478,6.152-123.626,1.882-58.52-6.08-113.6-22.619-160.612-60-50.666-40.135-74.516-94.094-79-156.993-1.592-21.968-.253-44.116-2.75-66.626-7.528,18.1-14.838,36.19-22.619,54.285-26.745,61.668-62.284,116.967-116.062,159.092a284.2,284.2,0,0,1-119.9,55.371,62.361,62.361,0,0,1-8.251.579c-5.646-2.75-11.291.181-16.973.181q-171.542-.435-343.047,0c-13.752,0-27.468.29-42.849-.76,2.57-3.8,4.994-6.985,3.909-10.857,32.9-54.647,44.3-116.026,56.276-177.332,18.1-93.588,37.095-187.067,55.588-280.619,6.189-31.268,11.979-62.609,18.1-93.914h0a32.575,32.575,0,0,0,1.52-5.1q16.177-79.148,32.282-158.3a90.837,90.837,0,0,0,.29-53.779c-1.737-8.758-3.619-17.516-5.248-26.274-1.629-9.916,3.185-11.87,12.3-11.8,65.794.326,131.624,0,197.418,0,15.526,0,15.526,0,16.032,15.345a69.187,69.187,0,0,1-.651,8.251q-17.7,90.475-35.5,180.951c-3.619,17.769-6.768,35.575-10.5,55.226,12.3-7.455,22.619-13.825,33.042-20.013,46.07-27.432,94.095-47.373,149.538-43.609,66.337,4.56,115.3,34.815,143.748,95.759,20.52,44.007,24.79,90.765,21.714,138.536-.507,8.324-.941,16.647-1.411,24.935a381.215,381.215,0,0,0,15.634-35.322c15.164-35.72,36.407-67.784,59.75-98.582h0a42.376,42.376,0,0,0,3.619-3.4,339.608,339.608,0,0,1,142.409-98.691,425.563,425.563,0,0,1,192.46-25.333c33.91,3.619,65.613,14.3,96.3,28.626l.181.217c24.1,13.9,47.373,28.952,66.445,49.617,30.183,32.788,42.994,72.38,45.31,115.809a414.637,414.637,0,0,1-9.952,110.778c-1.086,4.958-1.556,10.64-8.287,11.762a8.722,8.722,0,0,0-6.876-1.629H972.488a46.163,46.163,0,0,0-4.958.543Zm6.478-54.828-.651,1.7a12.253,12.253,0,0,0,2.75.688h135.5c2.1,0,4.2,0,5.429-2.244,11.4-3.619,9.192-14.223,11.074-22.51a715.805,715.805,0,0,0,18.421-145.123c.47-27.938-18.1-46.142-45.817-47.047-39.085-1.411-66.12,17.01-83.672,50.666-24.826,47.554-37.638,98.908-47.409,151.239-.941,5.031-.688,9.627,4.379,12.63ZM306.262,1203.968h19.832a32.038,32.038,0,0,0,7.238-1.266c62.392-16.647,106-54,124.748-116.677,21.171-70.571,35.865-142.7,49.653-215.042a205.017,205.017,0,0,0-7.672-104.626A39.809,39.809,0,0,0,465.246,737.4c-23.958-3.257-44.514,4.487-62.03,20.809C371.441,787.78,354.4,825.346,345.891,867,332.464,932.686,319.8,998.48,306.95,1064.274c-8.469,43.428-16.575,86.639-25.333,129.887-1.484,7.528,0,10.459,7.962,9.989C295.116,1203.678,300.689,1203.968,306.262,1203.968Z" transform="translate(0 183.094)" fill="#d42127"/>
    <path id="Path_2750" data-name="Path 2750" d="M862.644,1292.394c-36.19,2.461-72.055,4.994-108.281,2.533-65.432-4.451-128.656-17.01-186.778-48.857-22.365-12.232-42.632-27.541-54.937-50.884-18.747-35.575-9.3-78.967,17.733-110.778,49.943-58.665,159.237-68.979,227.021-16.973a120.259,120.259,0,0,1,21.714,20.846c7.057,8.866,6.659,13.933-2.063,21.171s-18.1,13.933-25.333,23.126c-31.811,40.424-14.766,95.723,34.6,109.874,43.1,12.341,79.04,1.773,109.729-32.173,56.565-62.645,90.91-136.292,112.19-216.852,4.777-18.095,8.469-36.516,12.124-54.864,1.194-5.935,3.366-14.042-1.99-17.48-4.379-2.823-9.916,3.149-14.476,6.3C959.779,958.5,912.08,982.1,859.134,993.535c-64.274,13.861-128.15,14.476-190.795-9.337C595.7,956.729,542.795,882.1,540.8,804.622A347.433,347.433,0,0,1,559.84,688.017c.941-2.931,1.556-6.007,2.316-9.011h0c1.339-2.75,2.859-5.465,3.981-8.324a320,320,0,0,1,56.964-93.7c48.458-55.226,110.235-89.824,178.128-114.94a473.185,473.185,0,0,1,128-26.491c54.1-4.271,107.485-1.412,160.105,12.92a397.694,397.694,0,0,1,73.792,30.364h0a25.592,25.592,0,0,0,3.619,3.4,313.807,313.807,0,0,1,74.226,64.672c20.013,23.379,34.525,50.124,47.3,77.954,2.823,9.156,5.5,18.385,8.577,27.5,6.659,19.688,7.781,40.461,12.16,60.619q.326,11.219.724,22.438v31.232c0,6.948-.4,13.9-.615,20.846-1.7,13.391-2.968,26.853-5.248,40.135-3.4,20.122-7.491,40.135-11.291,60.184a1.2,1.2,0,0,0-.289,1.592,25.767,25.767,0,0,0-3.4,10.857l-.651,3.981q-12.413,35.539-24.9,71.15h0A254.1,254.1,0,0,0,1248,1008.336l.253-.253-1.448,2.678a1.014,1.014,0,0,0-.47,1.375,201.651,201.651,0,0,0-16.286,29.965h0a100.281,100.281,0,0,0-12.594,20.628h0l-29.423,41.619h0a124.819,124.819,0,0,0-16.973,20.773h0l-19.4,20.954a1.013,1.013,0,0,0-1.122.941,50.01,50.01,0,0,0-10.857,11.472h0L1096,1196.345h0a913.027,913.027,0,0,1-79.618,50.052h0l-37.565,16.792h0c-13.535,4.307-27.034,8.686-40.569,12.92C913.889,1283.563,888.085,1286.965,862.644,1292.394ZM1083.983,642.67a366.96,366.96,0,0,0-8.83-81.9c-6.985-31.377-22.51-57.181-54.285-68.761-25.007-8.939-50.666-7.238-75.782.724-37.312,11.617-61.994,38.145-82.695,69.521C833.04,606.7,816.61,655.916,806.4,707.849c-9.591,48.857-10.857,97.171,2.316,145.448,8.613,31.811,29.6,57.579,65.143,61.523,44.659,4.813,83.708-8.722,115.049-39.809,64.527-63.695,94.058-142.409,95.072-232.486Z" transform="translate(1210.715 165.963)" fill="#14b151"/>
    <path id="Path_2751" data-name="Path 2751" d="M468.213,796.114l.9-3.981c3.619-18.674,7.636-37.312,10.857-56.095,1.882-10.568-1.846-14.476-12.486-13.282a142.343,142.343,0,0,1-23.885.651c-6.551-.434-7.528-3.293-4.994-8.867a29.823,29.823,0,0,1,8.288-10.423c15.309-13.209,32.9-23.2,49-35.286,35.683-26.708,62.826-61.523,90.982-95.506,34.779-41.836,72.018-80.958,119.971-108.136,27.323-15.49,55.7-28.373,87.544-31.2a74.547,74.547,0,0,1,15.562,0c4.524.543,11.834-.217,12.269,5.03a16.719,16.719,0,0,1-7.528,16.213q-7.6,4.488-14.838,9.627c-41.221,28.952-63.659,70.535-78.5,117.112a677.657,677.657,0,0,0-17.408,68.761c-2.461,11.943-2.352,11.979,10.278,11.979h64.636c10.568,0,12.377,2.389,10.278,12.413-3.04,14.476-5.9,29.242-8.939,43.826-.579,2.642-.9,5.646-4.379,6.442H701.024c-3.04,0-7.238-2.063-8.867,2.859-6.84,5.754-6.7,14.259-8.215,21.714Q663.1,856.805,642.686,963.494c-8.4,43.646-15.96,87.436-25.948,130.755-2.172,9.446-5.211,18.71-7.238,28.192-5.175,23.994,7.455,40.207,31.956,41.655,16,.941,30.906-3.945,45.817-8.541,6.912-2.1,10.242-2.1,8.143,7.021-17.842,77.266-87.617,132.818-165.9,129.851-47.952-1.846-88.738-19.036-114.072-62.862-16.937-29.278-17.19-60.329-10.857-92.828,21.714-111.792,42.234-223.728,63.188-335.628a41,41,0,0,0,.434-4.994Z" transform="translate(943.336 165.568)" fill="#d42128"/>
    <path id="Path_2752" data-name="Path 2752" d="M726.521,1286.522l-6.044-.4a62.145,62.145,0,0,0-19-3.872l-.868-.471h-.941c-3.619-3.619-11.617-.362-12.558-8.143h0l2.28-2.171h0l2.859-2.171a.9.9,0,0,0,1.194-.76q4.229-3.79,8.469-7.564a33.688,33.688,0,0,0,12.739-12.558h0a31.485,31.485,0,0,0,10.6-12.522h-.181a2.281,2.281,0,0,0,1.918-2.461h0a106.037,106.037,0,0,0,20.81-35.539h0a35.821,35.821,0,0,0,3.221-5.248c16.213-39.809,21.714-82.3,29.821-124.133l.47-3.872a361.943,361.943,0,0,0,10.278-50.341h0c2.1-1.629,1.629-3.909,1.484-6.116l.652-6.152a512.776,512.776,0,0,0,12.051-58.592L806,941.3a70.869,70.869,0,0,0,4.379-22.908h0a47.375,47.375,0,0,0,4.234-20.809h0c6.8-27.613,12.522-55.444,16.647-83.6l.471-.434-.253-.615c6.55-27.251,12.377-54.647,16.322-82.441a1.339,1.339,0,0,0,.29-1.737A814.666,814.666,0,0,0,864.443,647a1.3,1.3,0,0,0,.29-1.737,61.525,61.525,0,0,0,4.162-21.135h0c.9-2.931,2.027-5.827,2.75-8.83,6.84-28.663,8.831-57.144-2.823-85.192h0c-1.375-10.531-8.939-18.819-10.857-29.206l2.388-2.75,20.918-1.484H1081.62c8.432,0,13.318,3.438,12.341,12.594h0c-3.619,7.636-3.619,16.068-5.392,24.139-5.284,26.745-10.133,53.562-15.164,80.379a1.448,1.448,0,0,0-.253,1.846,58.228,58.228,0,0,0-4.162,21.063h0c-8.106,33.838-14.006,68.11-20.339,102.31l-.543,6.189A209.913,209.913,0,0,0,1040,785l-.181,2.063a53.13,53.13,0,0,0-3.872,18.819l-.434,3.619a520.861,520.861,0,0,0-12.233,61.415,6.809,6.809,0,0,1-.253,2.244,232.268,232.268,0,0,0-8.216,41.582,1.412,1.412,0,0,0-.289,1.81,49.977,49.977,0,0,0-3.836,19.072l-.217,2.063c-8.324,33.8-14.187,68.074-20.448,102.31l-.434,4.126a277.369,277.369,0,0,0-7.817,37.6c-.217,2.027-.4,4.017-.615,6.044-7.238,26.853-10.857,54.285-16.394,81.609a1.231,1.231,0,0,0-.4,1.629,22.222,22.222,0,0,0-3.619,10.857,1.085,1.085,0,0,0-.543,1.447c-27.07,57.4-79.148,79.112-135.424,94.493-14.476,3.909-28.952,5.718-43.754,8.5l-25.333,1.013H743.711Z" transform="translate(1693.251 330.782)" fill="#14b151"/>
    <path id="Path_2753" data-name="Path 2753" d="M1421.985,627.784q0,20.665.181,41.438c-9.989,74.624-26.093,148.163-39.809,222.1-6.116,32.571-11.979,65.468-18.1,98.148-7.238,38.47-2.605,76.8.579,115.157,1.049,12.92,0,14.476-13.282,14.476q-84.939,0-169.841.217c-7.962,0-15.96.434-23.922.651-13.825-3.366-15.743-5.718-17.154-20.23a99.331,99.331,0,0,0-1.846-12.268c-2.533-11.255-5.827-13.21-15.526-7.238-20.99,12.522-42.017,25.007-63.948,35.864l-2.063.543-8.251,3.619h0l-39.809,12.3h-.941l-.832.47a93.7,93.7,0,0,0-23.234,3.872l-12.232.615H948.942l-18.385-.724a92.906,92.906,0,0,0-23.343-3.872l-.833-.47-.941.181c-16.286-5.573-32.933-10.206-48.061-18.891a147.477,147.477,0,0,1-67.024-81.138h0a58.618,58.618,0,0,0-4.09-18.783l-.29-4.162c-1.086-18.964,1.629-37.674,4.27-56.348a1.049,1.049,0,0,0,.326-1.484c5.826-16.25,10.459-32.9,18.421-48.386,14.15-27.541,34.525-49.942,56.565-71.114h0l2.57-1.918,1.81-1.81,41.908-29.35h0l26.021-12.811c27.432-13.535,56.674-22.329,85.12-33.3a.8.8,0,0,0,1.194-.434,16.9,16.9,0,0,0,4.089-.543c48.423-16.9,96.882-33.693,144.327-53.272a77.664,77.664,0,0,0,41.148-38.615c11.617-23.958,11.545-49.074,4.7-74.19-2.9-10.6-10.857-17.371-21.244-21.28a84.686,84.686,0,0,0-44.26-3.329c-27.686,4.488-42.27,22.8-41.546,50.956.253,8.287,1.99,16.5,2.678,24.79,1.122,13.137-3.908,22.908-16.249,28.554-26.564,12.2-53.453,23.6-83.021,25.767-36.48,2.678-67.6-8-87.653-40.424-28.12-45.491-33.4-94.818-22.221-146.5,1.592-7.419,5.284-9.265,11.726-5.211,22.691,14.259,48.024,17.733,74.009,16.865a1265.422,1265.422,0,0,0,149.176-15.128c47.3-7.238,94.637-9.156,142.155-1.556a507.7,507.7,0,0,1,75.312,19.76h0c27.215,14.476,47.264,35.358,56.529,65.613C1418.076,599.013,1419.271,613.525,1421.985,627.784ZM1192.937,755.5c-19.9,7.853-38.687,13.969-55.407,24.826a355.2,355.2,0,0,0-99.234,97.967c-24.211,35.213-38.615,72.67-31.63,116.424,4.271,26.708,25.876,49.617,50.992,51.824,17.227,1.52,31.63-6.84,45.926-14.476,25.514-13.933,44.152-33.838,48.857-63.55,7.926-50.087,19.072-99.559,28.518-149.357C1184.794,798.349,1188.775,777.648,1192.937,755.5Z" transform="translate(1951.544 325.719)" fill="#14b151"/>
    <circle id="Ellipse_243" data-name="Ellipse 243" cx="191.881" cy="191.881" r="191.881" transform="translate(2520.996 370.37)" fill="#fff" stroke="#000" stroke-width="0.669"/>
    <path id="Path_2754" data-name="Path 2754" d="M835.91,378.32l6.8,16.539M730.09,555.254c10.314,24.284,34.381,30.87,55.769,40.1m22.4-168.61c-47.373,11.436-77.845,61.234-76.361,61.523m121.527-38.724c-15.091,26.383-17.371,61.161-9.626,102.346m61.161-174.654c16.5-6.985,42.994-5.9,75.348,1.773M816.621,670.881c-7.745,8.4-12.3,22.474-16.032,37.964M922.622,419.938C942.744,430.8,979.694,449.4,1003,478.784m-110.38,185.8a126.666,126.666,0,0,0,73.937,45.527m35.249-160.648a444.744,444.744,0,0,1-93.588,43.754m147.258-125c-2.063-18.855-10.857-37.023-21.244-55.082m47.047,130.574a33.15,33.15,0,0,1,17.444,19.326m-47.771,23.849c2.859,27-8.143,59.207-19.181,91.525" transform="translate(1805.816 5.767)" fill="none" stroke="#000" stroke-width="0.669"/>
    <path id="Path_2755" data-name="Path 2755" d="M847.453,379.228a308.129,308.129,0,0,1,76.9-5.971c7.021,13.028,9.663,30.617,12.992,48.1-29.893,11.87-58.52,23.741-77.085,34.706-19.76-10.133-30.617-12.522-53.6-26.853C814.266,411.148,828.055,394.5,847.453,379.228Zm218.625,84.794c12.811,26.745,25.333,53.525,30.4,80.885-12.051,18.1-24.573,38.253-34.742,47.264-16.467-9.7-36.19-25.55-55.371-39.809.434-30.906,1.592-53.815,2.461-79.618C1029.309,467.6,1049.032,463.407,1066.078,464.022ZM729.509,592.208A191.807,191.807,0,0,1,743.3,476.4l4.632,1.267c-6.3,27.251-11.074,54.285-4.777,78.895a62.464,62.464,0,0,0-10.025,35.828Zm123.662-48.061c25.333,15.526,50.051,30.653,73.937,45.527-2.135,28.12-11.183,53.562-18.566,79.619-26.274,8.4-55.443,2.606-83.238,2.931-20.592-29.206-23.813-53.851-31.884-79.619a308.854,308.854,0,0,1,59.569-48.459ZM1058.3,685.977a191.807,191.807,0,0,1-103.938,57.9l-8.541-3.873c10.133-6.985,17.516-18.819,23.6-32.969,20.737-1.3,48.748-20.665,75.457-36.805a78.2,78.2,0,0,1,13.246,15.743ZM840.9,731.214a192.171,192.171,0,0,1-66.807-48.82c12.667,11.545,23.162,21.714,38.108,22.619,1.52,7.2,8.939,15.345,28.518,26.2Z" transform="translate(1795.215 6.631)"/>
  </g>
</svg>
