<svg id="Group_869" data-name="Group 869" xmlns="http://www.w3.org/2000/svg" width="570.385" height="362.481" viewBox="0 0 570.385 362.481">
  <path id="Path_2751" data-name="Path 2751" d="M19.628,216.917C16.079,123.474,97.926,37.123,191.462,36c47.673-4.066,94.053,14.447,130.131,44.641-14.8,16.272-29.857,32.357-45.942,47.414-31.761-19.3-70-34-107.121-20.942C108.659,124.164,72.4,194.855,94.557,253.425c18.348,61.172,92.753,94.743,151.065,69.045,30.194-10.812,50.1-38.671,58.837-68.607-34.605-.689-69.218-.259-103.823-1.214-.086-20.589-.172-41.1-.086-61.689,57.709-.086,115.5-.259,173.3.259,3.549,50.446-3.894,104.434-36.689,144.923-44.907,57.8-127.875,74.757-195.369,52.084C70.161,364.7,18.069,292.535,19.628,216.917Z" transform="translate(-19.517 -35.445)" fill="#1e1e1e"/>
  <path id="Path_2752" data-name="Path 2752" d="M124.62,48.668h51.473c.094,17.22.258,34.527.353,51.739,17.212.172,34.519.259,51.739.345v51.567l-51.739.259c-.172,17.306-.259,34.519-.353,51.825-17.212-.086-34.44,0-51.567,0-.165-17.306-.165-34.519-.345-51.739-17.212-.18-34.519-.259-51.739-.353V100.744q25.83-.129,51.739-.345C124.267,83.195,124.44,65.888,124.62,48.668Z" transform="translate(342.201 54.929)" fill="#1e1e1e"/>
</svg>
