<svg id="Group_113" data-name="Group 113" xmlns="http://www.w3.org/2000/svg" width="295.342" height="295.342" viewBox="0 0 295.342 295.342">
  <path id="Path_334" data-name="Path 334" d="M316.79,109.468H197.478a88.015,88.015,0,0,0-88.015,88.015V316.795a88.015,88.015,0,0,0,88.015,88.015H316.79A88.015,88.015,0,0,0,404.8,316.795V197.483a88.015,88.015,0,0,0-88.015-88.015ZM375.032,316.71a58.242,58.242,0,0,1-58.242,58.242H197.478a58.242,58.242,0,0,1-58.242-58.242V197.4a58.242,58.242,0,0,1,58.242-58.242H316.79A58.243,58.243,0,0,1,375.032,197.4Z" transform="translate(-109.463 -109.468)" fill="#1e1e1e"/>
  <path id="Path_335" data-name="Path 335" d="M256.538,180.2a76.336,76.336,0,1,0,76.336,76.336A76.336,76.336,0,0,0,256.538,180.2Zm0,122.985a46.648,46.648,0,1,1,46.648-46.648,46.648,46.648,0,0,1-46.648,46.648Z" transform="translate(-108.876 -108.992)" fill="#1e1e1e"/>
  <path id="Path_339" data-name="Path 339" d="M350.371,180.908a18.3,18.3,0,1,1-18.3-18.3,18.3,18.3,0,0,1,18.3,18.3Z" transform="translate(-107.906 -110.09)" fill="#1e1e1e"/>
</svg>
