<svg xmlns="http://www.w3.org/2000/svg" width="1393.131" height="1035.99" viewBox="0 0 1393.131 1035.99">
  <g id="logout" transform="translate(0 -42.299)">
    <path id="XMLID_4_" d="M216.2,421.619H949.852a63.324,63.324,0,0,0,0-126.648H216.2l81.874-81.87a63.323,63.323,0,0,0-89.553-89.553L18.562,313.508c-1.469,1.465-2.854,3-4.171,4.6-.321.393-.6.815-.908,1.216-.967,1.228-1.917,2.461-2.786,3.761-.253.38-.46.781-.709,1.165-.87,1.359-1.722,2.731-2.491,4.162-.148.283-.27.583-.418.865-.8,1.549-1.566,3.12-2.237,4.741-.084.2-.144.41-.224.612-.688,1.706-1.326,3.432-1.866,5.209-.072.224-.11.456-.173.684-.511,1.743-.979,3.5-1.338,5.307-.106.536-.152,1.089-.249,1.63-.262,1.494-.523,2.989-.671,4.513a62.442,62.442,0,0,0,0,12.644c.148,1.545.418,3.052.675,4.559.093.523.139,1.06.245,1.579.363,1.819.827,3.6,1.342,5.357.063.207.1.426.165.633.545,1.786,1.182,3.529,1.879,5.252.076.186.131.384.211.57.675,1.634,1.448,3.213,2.254,4.77.139.274.258.561.4.836.777,1.44,1.634,2.824,2.516,4.2.236.371.439.764.684,1.127.874,1.3,1.832,2.546,2.795,3.778.308.4.583.815.9,1.2,1.321,1.6,2.706,3.137,4.171,4.6l189.96,189.959a63.323,63.323,0,1,0,89.553-89.553Z" transform="translate(1013.176 918.889) rotate(-180)"/>
    <path id="XMLID_5_" d="M543.809,42.3A517.613,517.613,0,0,0,113.615,271.671a63.324,63.324,0,0,0,105.118,70.64A391.138,391.138,0,0,1,543.809,168.943c215.787,0,391.347,175.56,391.347,391.351S759.6,951.641,543.809,951.641A391.275,391.275,0,0,1,219.261,779.057a63.324,63.324,0,0,0-104.945,70.9,517.763,517.763,0,0,0,429.493,228.334c285.621,0,517.995-232.37,517.995-517.995S829.43,42.3,543.809,42.3Z" transform="translate(331.325 0)"/>
  </g>
</svg>
