<svg xmlns="http://www.w3.org/2000/svg" width="509.201" height="509.201" viewBox="0 0 509.201 509.201">
  <g id="right-arrow" transform="translate(-9.793 -9.792)">
    <g id="Group_866" data-name="Group 866">
      <path id="Path_2749" data-name="Path 2749" d="M255.6,510.2h0C114.993,510.2,1,396.209,1,255.6H1C1,114.993,114.993,1,255.6,1h0C396.209,1,510.2,114.993,510.2,255.6h0C510.2,396.209,396.209,510.2,255.6,510.2Z" transform="translate(8.792 8.792)" fill="#db4437"/>
    </g>
    <path id="Path_2751" data-name="Path 2751" d="M31.089,268.6a9.792,9.792,0,0,1-6.923-16.716L134.75,141.3,24.165,30.718A9.791,9.791,0,0,1,38.012,16.871L150.6,129.464a16.755,16.755,0,0,1,0,23.678L38.012,265.734A9.766,9.766,0,0,1,31.089,268.6Z" transform="translate(187.222 123.09)" fill="#fff"/>
  </g>
</svg>
