<svg xmlns="http://www.w3.org/2000/svg" width="475.082" height="401.958" viewBox="0 0 475.082 401.958">
  <g id="four-black-squares" transform="translate(0 -36.542)">
    <g id="Group_866" data-name="Group 866" transform="translate(0 36.542)">
      <path id="Path_2753" data-name="Path 2753" d="M182.725,36.542H36.547A35.116,35.116,0,0,0,10.85,47.4,35.1,35.1,0,0,0,0,73.087V182.723a35.109,35.109,0,0,0,10.85,25.693,35.109,35.109,0,0,0,25.7,10.854H182.725a37.063,37.063,0,0,0,36.547-36.547V73.087a35.109,35.109,0,0,0-10.85-25.692A35.112,35.112,0,0,0,182.725,36.542Z" transform="translate(0 -36.542)"/>
      <path id="Path_2754" data-name="Path 2754" d="M182.725,255.813H36.547a35.129,35.129,0,0,0-25.7,10.852A35.114,35.114,0,0,0,0,292.358V401.994a35.108,35.108,0,0,0,10.85,25.694,35.115,35.115,0,0,0,25.7,10.852H182.725a37.06,37.06,0,0,0,36.547-36.546V292.358a37.06,37.06,0,0,0-36.547-36.545Z" transform="translate(0 -36.582)"/>
      <path id="Path_2755" data-name="Path 2755" d="M464.23,47.4a35.09,35.09,0,0,0-25.694-10.854H292.355A35.109,35.109,0,0,0,266.662,47.4,35.1,35.1,0,0,0,255.81,73.088V182.724a37.067,37.067,0,0,0,36.545,36.547H438.536a37.067,37.067,0,0,0,36.546-36.547V73.087A35.1,35.1,0,0,0,464.23,47.4Z" transform="translate(0 -36.542)"/>
      <path id="Path_2756" data-name="Path 2756" d="M438.536,255.813H292.355a37.063,37.063,0,0,0-36.545,36.545V401.994a37.063,37.063,0,0,0,36.545,36.546H438.536a37.063,37.063,0,0,0,36.546-36.546V292.358a37.063,37.063,0,0,0-36.546-36.545Z" transform="translate(0 -36.582)"/>
    </g>
  </g>
</svg>
