<svg xmlns="http://www.w3.org/2000/svg" width="346.947" height="281.909" viewBox="0 0 346.947 281.909">
  <path id="Path_332" data-name="Path 332" d="M346.947,81.37a148.287,148.287,0,0,1-40.982,11.224,70.72,70.72,0,0,0,31.281-39.3,142.156,142.156,0,0,1-45.109,17.222A71.125,71.125,0,0,0,169.1,119.15a73.285,73.285,0,0,0,1.639,16.219,201.322,201.322,0,0,1-146.57-74.4,71.145,71.145,0,0,0,21.851,95.039,70.239,70.239,0,0,1-32.13-8.736v.771a71.453,71.453,0,0,0,56.989,69.891,70.989,70.989,0,0,1-18.649,2.334,62.908,62.908,0,0,1-13.5-1.215,71.8,71.8,0,0,0,66.458,49.545A142.926,142.926,0,0,1,17.029,298.95,133.225,133.225,0,0,1,0,297.986,200.242,200.242,0,0,0,109.118,329.9a201.052,201.052,0,0,0,202.5-202.4c0-3.144-.116-6.171-.251-9.2A141.9,141.9,0,0,0,346.947,81.37Z" transform="translate(0 -48)" fill="#1e1e1e"/>
</svg>
